# File created by Blade
# Date/Time:  Thu Jan 22 19:24:19 2015
# Frame Rate: 120.000 fps
#------------------------------------------------------
:FULLY-SPECIFIED
:DEGREES
3484
root -4.583803 33.715183 -4.826567 -2.932554 -29.312269 17.143510
RightUpLeg -8.646065 -6.854590 -6.839066
RightLeg 16.797635 -0.000000 -0.000000
RightFoot -21.254859 -2.709757 1.873988
RightToeBase 4.233906 -0.000000 -0.000000
LeftUpLeg -109.163688 -26.888277 -2.907968
LeftLeg 115.764167 -0.000000 -0.000000
LeftFoot 12.333094 -6.579986 -14.185648
LeftToeBase 1.727681 -0.000000 -0.000000
Spine 3.523631 28.490330 -3.436982
RightShoulder -2.604276 -1.756984 -21.570317
RightArm 40.710879 -27.353825 54.264819
RightForeArm 14.152861 -0.000000 45.876753
RightHand 11.034425 -0.000000 38.520367
RightHandThumb1 -24.326973 -0.000000 -32.862282
LeftShoulder -28.352077 1.862315 24.577153
LeftArm 14.364200 -31.824106 -35.554463
LeftForeArm 17.465861 0.000000 2.979061
LeftHand -0.002696 0.000000 -0.920884
LeftHandThumb1 -26.253704 0.000000 33.147579
Head -10.043213 51.607809 -26.337914
3485
root -4.573301 33.716068 -4.808499 -3.052643 -29.609093 17.251925
RightUpLeg -8.676683 -6.810845 -6.931410
RightLeg 16.852766 -0.000000 -0.000000
RightFoot -21.006345 -2.679225 1.058489
RightToeBase 3.816555 -0.000000 -0.000000
LeftUpLeg -109.159718 -26.945246 -2.840259
LeftLeg 115.805612 -0.000000 -0.000000
LeftFoot 12.270692 -6.652679 -14.127792
LeftToeBase 1.604634 -0.000000 -0.000000
Spine 3.513611 28.613175 -3.452999
RightShoulder -2.642316 -1.802690 -21.586718
RightArm 40.604587 -27.395692 54.211283
RightForeArm 14.251307 0.000000 45.900796
RightHand 11.093047 0.000000 38.453302
RightHandThumb1 -24.326973 -0.000000 -32.862282
LeftShoulder -28.427431 1.930658 24.517785
LeftArm 14.332802 -31.869534 -35.710163
LeftForeArm 17.506161 -0.000000 2.974694
LeftHand 0.067367 0.000000 -0.841598
LeftHandThumb1 -26.253704 0.000000 33.147579
Head -10.012314 51.858280 -26.373206
3486
root -4.563773 33.717303 -4.787990 -3.173618 -29.908704 17.337838
RightUpLeg -8.664491 -6.735719 -6.998252
RightLeg 16.839127 -0.000000 -0.000000
RightFoot -20.675809 -2.794214 -0.029736
RightToeBase 3.648663 -0.000000 -0.000000
LeftUpLeg -109.138073 -27.021164 -2.774749
LeftLeg 115.854274 -0.000000 -0.000000
LeftFoot 12.219489 -6.684317 -14.149974
LeftToeBase 1.288138 -0.000000 -0.000000
Spine 3.521229 28.754334 -3.433743
RightShoulder -2.691840 -1.886438 -21.589300
RightArm 40.496150 -27.396899 54.152177
RightForeArm 14.304449 -0.000000 45.948085
RightHand 11.115402 -0.000000 38.416236
RightHandThumb1 -24.326973 -0.000000 -32.862282
LeftShoulder -28.499595 2.006726 24.441156
LeftArm 14.335456 -31.956936 -35.910913
LeftForeArm 17.485000 -0.000000 2.984013
LeftHand 0.180547 0.000000 -0.736689
LeftHandThumb1 -26.253704 0.000000 33.147579
Head -9.984271 52.090357 -26.423689
3487
root -4.554356 33.718806 -4.766144 -3.294982 -30.181501 17.428912
RightUpLeg -8.601523 -6.626338 -7.059297
RightLeg 16.724286 -0.000000 -0.000000
RightFoot -20.234760 -3.057851 -1.256398
RightToeBase 3.546419 -0.000000 -0.000000
LeftUpLeg -109.098899 -27.144151 -2.738864
LeftLeg 115.892182 -0.000000 -0.000000
LeftFoot 12.155086 -6.705062 -14.200988
LeftToeBase 1.223476 -0.000000 -0.000000
Spine 3.527875 28.860158 -3.422170
RightShoulder -2.752802 -2.030123 -21.585687
RightArm 40.436645 -27.396468 54.049680
RightForeArm 14.429705 -0.000000 46.012735
RightHand 11.135752 -0.000000 38.401417
RightHandThumb1 -24.326973 -0.000000 -32.862282
LeftShoulder -28.591095 2.162670 24.310800
LeftArm 14.421372 -31.871934 -36.073834
LeftForeArm 17.311686 0.000000 2.921568
LeftHand 0.287826 0.000000 -0.742102
LeftHandThumb1 -26.253704 0.000000 33.147579
Head -9.963701 52.338706 -26.487069
3488
root -4.547599 33.720243 -4.746228 -3.397032 -30.478250 17.500300
RightUpLeg -8.553132 -6.415013 -7.088507
RightLeg 16.590749 -0.000000 -0.000000
RightFoot -19.739254 -3.343986 -2.437566
RightToeBase 3.588625 -0.000000 -0.000000
LeftUpLeg -109.060662 -27.230181 -2.716394
LeftLeg 115.932702 -0.000000 -0.000000
LeftFoot 12.117599 -6.764655 -14.204590
LeftToeBase 1.198592 -0.000000 -0.000000
Spine 3.526649 28.991726 -3.407459
RightShoulder -2.816358 -2.176167 -21.580030
RightArm 40.305550 -27.328242 54.071306
RightForeArm 14.415954 0.000000 46.117466
RightHand 11.120695 0.000000 38.393940
RightHandThumb1 -24.326973 -0.000000 -32.862282
LeftShoulder -28.678520 2.272156 24.215745
LeftArm 14.465554 -31.814334 -36.273852
LeftForeArm 17.224694 -0.000000 2.882496
LeftHand 0.537632 -0.000000 -0.601416
LeftHandThumb1 -26.253704 0.000000 33.147579
Head -9.980890 52.571121 -26.570584
3489
root -4.540525 33.721721 -4.727198 -3.475765 -30.759182 17.554231
RightUpLeg -8.487719 -6.074638 -7.094803
RightLeg 16.392237 -0.000000 -0.000000
RightFoot -19.312310 -3.681683 -3.481565
RightToeBase 3.677516 -0.000000 -0.000000
LeftUpLeg -109.045755 -27.364125 -2.671570
LeftLeg 115.959541 -0.000000 -0.000000
LeftFoot 12.136343 -6.811476 -14.162136
LeftToeBase 1.071145 -0.000000 -0.000000
Spine 3.511975 29.125653 -3.386374
RightShoulder -2.930980 -2.380867 -21.552803
RightArm 40.239359 -27.260688 54.024180
RightForeArm 14.449362 -0.000000 46.250193
RightHand 11.055684 -0.000000 38.342893
RightHandThumb1 -24.326973 -0.000000 -32.862282
LeftShoulder -28.740480 2.399202 24.100758
LeftArm 14.540827 -31.787399 -36.483963
LeftForeArm 17.325102 -0.000000 2.872601
LeftHand 0.626595 0.000000 -0.594796
LeftHandThumb1 -26.253704 0.000000 33.147579
Head -9.997001 52.791382 -26.631911
3490
root -4.535345 33.722045 -4.708541 -3.532485 -31.026980 17.628659
RightUpLeg -8.441388 -5.709695 -7.107517
RightLeg 16.174781 -0.000000 -0.000000
RightFoot -18.947176 -4.042276 -4.427859
RightToeBase 3.883022 -0.000000 -0.000000
LeftUpLeg -109.047769 -27.487132 -2.653160
LeftLeg 115.975029 -0.000000 -0.000000
LeftFoot 12.204951 -6.929144 -14.171128
LeftToeBase 0.983234 -0.000000 -0.000000
Spine 3.450154 29.237464 -3.427655
RightShoulder -3.037529 -2.570461 -21.524062
RightArm 40.100453 -27.157933 54.091539
RightForeArm 14.344523 -0.000000 46.381807
RightHand 11.112989 0.000000 38.328457
RightHandThumb1 -24.326973 -0.000000 -32.862282
LeftShoulder -28.827110 2.628945 23.917791
LeftArm 14.694020 -31.925990 -36.713982
LeftForeArm 17.683074 0.000000 2.889412
LeftHand 0.515885 -0.000000 -0.442230
LeftHandThumb1 -26.253704 0.000000 33.147579
Head -10.028529 53.013318 -26.695794
3491
root -4.529571 33.722440 -4.687804 -3.595466 -31.322001 17.709680
RightUpLeg -8.399750 -5.172342 -7.142686
RightLeg 15.991907 -0.000000 -0.000000
RightFoot -18.709405 -4.440939 -4.989078
RightToeBase 4.204178 -0.000000 -0.000000
LeftUpLeg -109.043922 -27.619417 -2.651866
LeftLeg 115.994011 -0.000000 -0.000000
LeftFoot 12.262863 -6.975251 -14.192070
LeftToeBase 0.885876 -0.000000 -0.000000
Spine 3.392257 29.376057 -3.464008
RightShoulder -3.141611 -2.786949 -21.491601
RightArm 40.019776 -27.084325 54.081327
RightForeArm 14.413987 0.000000 46.498456
RightHand 11.032007 0.000000 38.298575
RightHandThumb1 -24.326973 -0.000000 -32.862282
LeftShoulder -28.816824 2.622818 23.915009
LeftArm 14.552112 -31.678516 -36.805045
LeftForeArm 17.641969 0.000000 2.854625
LeftHand 0.810446 0.000000 -0.542120
LeftHandThumb1 -26.253704 0.000000 33.147579
Head -10.051240 53.248116 -26.783394
